{
  "accessors": [
    {
      "bufferView": 2,
      "componentType": 5126,
      "count": 11291,
      "max": [
        0.8380410075187683,
        9.118075370788574,
        12.770447731018066
      ],
      "min": [
        -0.8380410075187683,
        0.06264500319957733,
        -11.015295028686523
      ],
      "type": "VEC3"
    },
    {
      "bufferView": 2,
      "byteOffset": 135492,
      "componentType": 5126,
      "count": 11291,
      "max": [
        1.0,
        1.0,
        1.0
      ],
      "min": [
        -0.9999999403953552,
        -1.0,
        -0.9999996423721313
      ],
      "type": "VEC3"
    },
    {
      "bufferView": 3,
      "componentType": 5126,
      "count": 11291,
      "max": [
        1.0,
        0.9999932646751404,
        0.9999995827674866,
        1.0
      ],
      "min": [
        -1.0,
        -0.99998539686203,
        -1.0,
        -1.0
      ],
      "type": "VEC4"
    },
    {
      "bufferView": 1,
      "componentType": 5126,
      "count": 11291,
      "max": [
        0.9974759817123413,
        0.9975590109825134
      ],
      "min": [
        0.002440999960526824,
        0.002440999960526824
      ],
      "type": "VEC2"
    },
    {
      "bufferView": 0,
      "componentType": 5125,
      "count": 32658,
      "type": "SCALAR"
    }
  ],
  "asset": {
    "extras": {
      "author": "Arupsaha (https://sketchfab.com/Arupsaha)",
      "license": "CC-BY-4.0 (http://creativecommons.org/licenses/by/4.0/)",
      "source": "https://sketchfab.com/3d-models/m416-gun-dec3465b2c4d45e6b8bbe357cfa6ef40",
      "title": "M416 Gun"
    },
    "generator": "Sketchfab-15.20.0",
    "version": "2.0"
  },
  "bufferViews": [
    {
      "buffer": 0,
      "byteLength": 130632,
      "name": "floatBufferViews",
      "target": 34963
    },
    {
      "buffer": 0,
      "byteLength": 90328,
      "byteOffset": 130632,
      "byteStride": 8,
      "name": "floatBufferViews",
      "target": 34962
    },
    {
      "buffer": 0,
      "byteLength": 270984,
      "byteOffset": 220960,
      "byteStride": 12,
      "name": "floatBufferViews",
      "target": 34962
    },
    {
      "buffer": 0,
      "byteLength": 180656,
      "byteOffset": 491944,
      "byteStride": 16,
      "name": "floatBufferViews",
      "target": 34962
    }
  ],
  "buffers": [
    {
      "byteLength": 672600,
      "uri": "scene.bin"
    }
  ],
  "images": [
    {
      "uri": "textures/low_initialShadingGroup_baseColor.png"
    },
    {
      "uri": "textures/low_initialShadingGroup_metallicRoughness.png"
    },
    {
      "uri": "textures/low_initialShadingGroup_normal.png"
    }
  ],
  "materials": [
    {
      "alphaMode": "BLEND",
      "doubleSided": true,
      "name": "low_initialShadingGroup",
      "normalTexture": {
        "index": 2
      },
      "pbrMetallicRoughness": {
        "baseColorTexture": {
          "index": 0
        },
        "metallicRoughnessTexture": {
          "index": 1
        }
      }
    }
  ],
  "meshes": [
    {
      "name": "low_low_initialShadingGroup_0",
      "primitives": [
        {
          "attributes": {
            "NORMAL": 1,
            "POSITION": 0,
            "TANGENT": 2,
            "TEXCOORD_0": 3
          },
          "indices": 4,
          "material": 0,
          "mode": 4
        }
      ]
    }
  ],
  "nodes": [
    {
      "children": [
        1
      ],
      "matrix": [
        1.0,
        0.0,
        0.0,
        0.0,
        0.0,
        2.220446049250313e-16,
        -1.0,
        0.0,
        0.0,
        1.0,
        2.220446049250313e-16,
        0.0,
        0.0,
        0.0,
        0.0,
        1.0
      ],
      "name": "Sketchfab_model"
    },
    {
      "children": [
        2
      ],
      "matrix": [
        0.009999999776482582,
        0.0,
        0.0,
        0.0,
        0.0,
        0.0,
        0.009999999776482582,
        0.0,
        0.0,
        -0.009999999776482582,
        0.0,
        0.0,
        0.0,
        0.0,
        0.0,
        1.0
      ],
      "name": "88838c34bc564caca77f1d538c6a9c33.fbx"
    },
    {
      "children": [
        3
      ],
      "name": "RootNode"
    },
    {
      "children": [
        4
      ],
      "matrix": [
        51.025211334228516,
        0.0,
        0.0,
        0.0,
        0.0,
        51.02521133422783,
        8.31306310504294e-06,
        0.0,
        0.0,
        -8.31306310504294e-06,
        51.02521133422783,
        0.0,
        0.0,
        0.0,
        0.0,
        1.0
      ],
      "name": "low"
    },
    {
      "mesh": 0,
      "name": "low_low_initialShadingGroup_0"
    }
  ],
  "samplers": [
    {
      "magFilter": 9729,
      "minFilter": 9987,
      "wrapS": 10497,
      "wrapT": 10497
    }
  ],
  "scene": 0,
  "scenes": [
    {
      "name": "Sketchfab_Scene",
      "nodes": [
        0
      ]
    }
  ],
  "textures": [
    {
      "sampler": 0,
      "source": 0
    },
    {
      "sampler": 0,
      "source": 1
    },
    {
      "sampler": 0,
      "source": 2
    }
  ]
}
